<?xml version="1.0" standalone="no"?>
<!DOCTYPE svg PUBLIC "-//W3C//DTD SVG 20010904//EN"
 "http://www.w3.org/TR/2001/REC-SVG-20010904/DTD/svg10.dtd">
<svg version="1.0" xmlns="http://www.w3.org/2000/svg"
 width="1024.000000pt" height="1024.000000pt" viewBox="0 0 1024.000000 1024.000000"
 preserveAspectRatio="xMidYMid meet">
<metadata>
Created by potrace 1.14, written by Peter Selinger 2001-2017
</metadata>
<g transform="translate(0.000000,1024.000000) scale(0.100000,-0.100000)"
fill="#000000" stroke="none">
<path d="M4820 7965 c-482 -69 -885 -216 -1283 -469 -184 -116 -321 -227 -492
-400 -216 -216 -358 -402 -498 -653 -184 -327 -326 -755 -382 -1148 -23 -164
-15 -150 -92 -169 -119 -30 -189 -71 -289 -171 -134 -134 -184 -250 -184 -430
0 -167 60 -319 176 -444 99 -107 201 -170 334 -207 78 -22 325 -25 510 -5 189
19 531 70 587 86 91 27 149 123 124 207 -7 21 -11 40 -11 43 1 11 -56 58 -87
71 -46 20 -86 18 -299 -16 -479 -75 -656 -87 -758 -51 -125 44 -198 110 -232
213 -42 128 21 288 136 348 56 29 100 37 456 90 187 28 380 57 429 65 50 8
225 35 390 61 165 25 341 52 390 60 50 8 135 21 190 29 55 9 141 22 190 30 50
8 225 35 390 60 659 99 831 127 861 140 47 19 86 77 92 134 5 60 -17 112 -65
148 -62 47 -74 46 -703 -52 -118 -18 -318 -50 -445 -69 -323 -51 -419 -64
-424 -60 -8 7 20 179 55 344 35 161 133 483 157 513 11 13 24 11 112 -15 191
-56 483 -106 730 -126 l90 -7 6 -115 c4 -63 7 -118 8 -122 0 -5 17 -26 37 -48
78 -86 211 -73 279 28 23 34 25 46 25 148 l0 112 78 7 c288 24 502 64 784 144
l67 19 20 -51 c10 -29 33 -98 51 -155 35 -114 63 -155 125 -183 75 -35 147
-18 204 47 58 65 53 128 -23 332 -25 68 -46 125 -46 127 0 2 51 30 113 63 157
83 310 184 374 248 68 68 94 125 100 223 12 175 -37 267 -216 399 -360 267
-750 457 -1145 558 -231 59 -373 76 -646 80 -179 2 -283 -1 -350 -11z m158
-1490 c-2 -1 -57 1 -123 6 -261 19 -655 99 -655 134 0 19 137 248 215 361 131
188 312 394 465 531 l95 85 3 -557 c1 -307 1 -559 0 -560z m507 968 c160 -158
278 -295 402 -470 106 -148 224 -355 209 -365 -17 -10 -246 -64 -391 -91 -146
-29 -353 -52 -363 -42 -11 10 -15 1105 -5 1105 5 0 72 -62 148 -137z m-1105
61 c0 -4 -24 -33 -54 -65 -124 -134 -309 -402 -416 -601 -28 -54 -56 -98 -61
-98 -35 0 -404 217 -404 238 0 20 185 155 360 262 96 59 366 193 472 235 92
36 103 39 103 29z m1785 -108 c256 -125 424 -227 599 -364 l68 -55 -28 -23
c-62 -51 -337 -224 -356 -224 -3 0 -36 55 -73 123 -118 214 -269 431 -417 601
l-43 49 30 -7 c17 -4 116 -49 220 -100z m-2918 -725 c95 -69 322 -204 399
-238 47 -20 64 -32 60 -43 -3 -8 -28 -80 -56 -160 -74 -207 -133 -452 -165
-685 -16 -110 -29 -201 -29 -202 -2 -2 -167 -28 -561 -87 -382 -58 -385 -58
-385 -51 0 33 71 352 105 470 98 343 250 647 468 940 43 58 83 105 88 105 5 0
39 -22 76 -49z"/>
<path d="M7262 7553 c-138 -68 -122 -292 23 -332 25 -7 160 -11 366 -11 l326
0 -1 -432 c-1 -386 1 -436 16 -463 42 -77 125 -117 194 -95 55 18 101 55 124
101 20 38 20 55 18 593 -3 545 -3 555 -24 583 -11 15 -36 38 -54 51 l-33 22
-461 0 c-406 0 -465 -2 -494 -17z"/>
<path d="M7720 5981 c-177 -7 -601 -51 -692 -73 -72 -17 -138 -100 -138 -173
0 -45 34 -109 72 -139 47 -35 67 -35 439 21 269 39 338 46 479 47 l165 1 68
-32 c137 -65 217 -182 217 -318 0 -108 -45 -193 -129 -246 -62 -40 -72 -42
-436 -94 -297 -42 -485 -71 -1045 -160 -272 -43 -807 -122 -882 -130 -105 -12
-168 -77 -168 -175 0 -91 57 -158 141 -167 26 -3 165 14 338 41 162 25 299 46
306 46 9 0 10 -15 3 -57 -17 -116 -60 -321 -89 -431 -28 -107 -103 -319 -117
-334 -4 -4 -58 9 -119 27 -160 49 -434 102 -626 122 l-165 17 -6 50 c-3 28 -6
82 -6 119 0 85 -20 130 -73 165 -77 51 -194 27 -245 -51 -25 -37 -27 -50 -30
-162 l-4 -122 -106 -7 c-216 -14 -491 -63 -709 -127 -56 -17 -107 -28 -112
-25 -5 3 -23 45 -41 94 -42 117 -71 159 -127 184 -86 38 -184 2 -232 -83 -36
-64 -32 -117 17 -228 23 -52 41 -95 39 -96 -1 -1 -52 -29 -114 -63 -255 -139
-448 -283 -491 -366 -35 -69 -38 -196 -5 -269 44 -95 221 -248 470 -405 216
-136 389 -220 618 -298 567 -195 1135 -215 1721 -63 651 169 1311 630 1696
1184 130 188 272 465 353 690 64 177 130 441 157 630 l23 157 96 32 c53 18
118 46 146 64 101 65 212 200 253 309 63 168 47 365 -43 538 -42 80 -182 220
-267 268 -155 85 -253 100 -600 88z m45 -1408 c-9 -82 -51 -268 -92 -407 -89
-309 -320 -738 -527 -981 l-34 -40 -38 29 c-101 74 -280 186 -377 236 -59 30
-107 60 -107 66 0 7 20 69 45 139 80 224 155 554 174 763 5 57 11 106 13 108
6 6 872 139 932 143 17 1 18 -4 11 -56z m-2785 -1719 l0 -555 -47 33 c-72 50
-308 290 -403 408 -46 58 -112 149 -147 202 -66 100 -193 317 -193 329 0 8
196 62 310 85 96 19 361 51 433 53 l47 1 0 -556z m641 526 c129 -20 346 -68
432 -96 l47 -16 -41 -79 c-89 -171 -290 -454 -445 -626 -69 -77 -261 -253
-276 -253 -4 0 -8 248 -8 551 l0 552 83 -7 c45 -4 139 -15 208 -26z m-1718
-312 c95 -194 248 -431 383 -591 36 -43 64 -80 62 -82 -5 -4 -169 64 -298 126
-190 91 -416 236 -593 380 -10 8 135 108 283 193 63 36 115 66 116 66 1 0 22
-42 47 -92z m2810 -85 c64 -41 115 -79 112 -84 -12 -18 -244 -187 -325 -236
-144 -86 -533 -273 -569 -273 -3 0 20 26 50 58 126 131 303 390 405 595 20 40
41 78 47 85 12 15 94 -28 280 -145z"/>
<path d="M4053 4383 c-7 -2 -13 -9 -13 -15 0 -6 6 -6 15 2 8 6 20 8 26 4 8 -4
9 -3 5 4 -8 13 -13 14 -33 5z"/>
<path d="M3911 4361 c-14 -4 -26 -13 -29 -21 -3 -12 -2 -12 6 -2 5 7 13 12 18
11 5 -1 16 0 24 4 8 3 22 8 30 10 23 8 -21 6 -49 -2z"/>
<path d="M3540 4290 c0 -5 5 -10 11 -10 5 0 7 5 4 10 -3 6 -8 10 -11 10 -2 0
-4 -4 -4 -10z"/>
<path d="M2039 3610 c-47 -25 -87 -72 -94 -113 -3 -18 -5 -292 -3 -609 3 -567
3 -577 24 -605 11 -15 36 -38 54 -50 l33 -23 479 0 c459 0 480 1 518 20 53 27
94 97 94 159 -1 65 -34 124 -87 156 l-44 25 -356 0 -357 0 0 458 c0 422 -2
460 -19 497 -22 48 -44 69 -94 90 -49 20 -104 18 -148 -5z"/>
</g>
</svg>
